<?xml version="1.0" encoding="utf-8"?>
<!-- Generator: Adobe Illustrator 19.0.0, SVG Export Plug-In . SVG Version: 6.00 Build 0)  -->
<svg version="1.1" id="Capa_1" xmlns="http://www.w3.org/2000/svg" xmlns:xlink="http://www.w3.org/1999/xlink" x="0px" y="0px"
	 viewBox="0 0 440 454.7" style="enable-background:new 0 0 440 454.7;" xml:space="preserve">
<style type="text/css">
	.st0{opacity:0.43;fill:#FFFFFF;}
	.st1{fill:#FFFFFF;}
</style>
<path id="XMLID_1_" class="st0" d="M172.4,62.4c-1.3,2.5-2.3,4.1-2.9,5.7c-5.9,14.6-12.2,29-17.6,43.7
	c-7.4,20.7-12.1,42.1-15.8,63.7c-1.6,9.2-2.7,18.5-4.1,27.8c-0.4,2.4,0.1,4.2,2.2,5.8c15.2,11.4,30.3,23,45.5,34.5
	c1.4,1,3.2,1.4,4.8,2.1c8.7,8.9,19.1,15.9,29.4,24c0.1-1.7,0.3-2.4,0.3-3c0-56.4,0-112.8-0.1-169.2c0-1.9-1.4-4.3-3-5.5
	c-9.8-7.5-19.7-14.8-29.8-22.1c-1.4-1-3.5-1.2-4.3-1.5C175.5,66.3,174.2,64.6,172.4,62.4z M169.4,307c-0.6,4.1,3.2,7.7,7.7,7.7
	c0.4,3,29.3,25.9,36.8,29.1c0.1-1.2,0.4-2.2,0.4-3.3c0-19.5-0.1-38.9,0.1-58.4c0-3.5-1.2-5.8-4-7.8c-6.1-4.4-12-9.1-18-13.6
	c-5.9-4.5-12.1-8.6-17.6-13.5c-5.4-4.8-12.4-7.2-17.2-12.8c-1.7-2-4.3-3.2-6.4-4.8c-6.5-5-12.9-10-19.8-15.3c-0.2,1.4-0.4,2-0.4,2.5
	c-0.3,15.1,1.7,29.8,6.9,44.2c4.3,12.1,10.1,23,17.4,33.4c1.5,2.1,3.7,3.8,6.2,6.3C161.3,303.6,164.8,307.1,169.4,307z M230.9,338.8
	c2.2-0.8,4.2-1.2,5.7-2.2c4.4-3.1,8.6-6.5,13.1-9.6c17.4-12.2,32.7-26.3,43-45.2c0.9-1.6,1.1-3.7,1.7-6c7.5-2.7,18.6-50.8,13.2-60.7
	c-1.3,0.9-2.5,1.8-3.8,2.7c-20.3,15.5-40.7,30.9-61,46.5c-1.6,1.2-2.5,3.2-3.4,4.5c-1.7,0.6-3.4,0.8-4.7,1.6
	c-1.9,1.2-3.5,2.9-5.4,4.1c-2.8,1.6-3.7,3.8-3.6,7c0.1,19.6,0.1,39.2,0.1,58.8c0,1.2,0.2,2.4,0.4,4.9
	C228.1,342.2,232,342.1,230.9,338.8z M300.6,159.1c-1.9,1.3-3,2-4.1,2.9c-9.2,6.9-18.3,13.9-27.7,20.6c-9.3,6.6-17.7,14.2-27.3,20.4
	c-4.4,2.8-8.4,6.3-12.7,9.3c-2.3,1.6-3.2,3.5-3.2,6.4c0.1,15.5,0.1,31,0.1,46.4c0,1.2,0.2,2.4,0.3,4.3c2.3-1.7,4.1-3.1,5.9-4.4
	c9.8-7.5,19.5-15.1,29.5-22.4c9.9-7.2,18.9-15.5,29.1-22.2c5.3-3.5,10.3-7.6,15.2-11.6c1.1-0.9,2.1-2.8,2-4.2
	c-0.9-8.3-2-16.6-3.3-24.9c-0.2-1.3-1.5-2.5-2.4-3.7C305,170.7,301,165.4,300.6,159.1z M214,0c-3.5,4.3-6.7,7.4-9.2,11.1
	c-9.7,14.6-19.2,29.3-28.6,44.1c-0.5,0.8,0,3,0.8,3.7c3.2,2.8,6.6,5.3,10.2,7.7c1.4,1,3.2,1.3,5,2c0.5,0.9,1.1,2.4,2.1,3.2
	c3.6,2.9,7.4,5.7,11.2,8.4c2.7,1.9,5.4,3.8,8.5,6C214,57.4,214,29.3,214,0z M225.9,82.6c0.9-0.4,1.4-0.5,1.9-0.8
	c11.2-8.3,22.4-16.6,33.6-24.8c2.2-1.6,1.9-3.1,0.7-5.1c-3.7-6.1-7.2-12.2-11-18.2c-1-1.6-2.8-2.8-4.2-4.1
	c-5-10.7-12.6-19.6-20.9-29.5C225.9,28.4,225.9,55.3,225.9,82.6z"/>
<g>
	<path class="st1" d="M49.9,435l-39.8-60v60H0v-73.6h13.6l36.8,56.5v-56.5h10.2V435H49.9z"/>
	<path class="st1" d="M89.7,406.4l13.5-2c3-0.4,3.8-2,3.8-3.7c0-4.9-3.2-8.9-10.8-8.9c-6.9,0-10.7,4.3-11.3,10.1l-9.3-2.2
		c1-9.6,9.7-16.2,20.5-16.2c15,0,20.8,8.5,20.8,18.3v25c0,4.4,0.4,7,0.6,8.2h-9.6c-0.2-1.2-0.5-3.1-0.5-6.7
		c-2.2,3.5-7.2,8.3-16.1,8.3c-10.2,0-16.7-7.1-16.7-15C74.6,412.7,81.1,407.7,89.7,406.4z M107,413.6v-2.3l-15.3,2.3
		c-4.2,0.6-7.3,3-7.3,7.5c0,3.7,3.1,7.3,8.1,7.3C100.6,428.3,107,424.5,107,413.6z"/>
	<path class="st1" d="M145.1,385h10.8v8.8h-10.8v26c0,4.6,1.9,6.9,7,6.9c1.2,0,3-0.2,3.8-0.4v8.3c-0.8,0.3-3.3,0.9-6.6,0.9
		c-8.5,0-13.9-5.2-13.9-14.2v-27.4h-9.6V385h2.7c5.4,0,7.7-3.3,7.7-7.7v-8.1h8.9V385z"/>
	<path class="st1" d="M187,436.5c-11.6,0-18.7-8.7-18.7-20V385h9.8v30c0,6.9,3.1,12.9,11.3,12.9c7.9,0,11.8-5.2,11.8-12.8V385h9.8
		v40.7c0,3.9,0.3,7.5,0.5,9.2h-9.3c-0.2-1.1-0.4-3.9-0.4-6C199,434.2,192.8,436.5,187,436.5z"/>
	<path class="st1" d="M255.3,394.9c-1.5-0.2-2.9-0.3-4.3-0.3c-8.2,0-13.7,4.4-13.7,15.4v25h-9.8V385h9.6v8.7c3.6-7.7,9.9-9.6,15-9.6
		c1.3,0,2.7,0.2,3.2,0.3V394.9z"/>
	<path class="st1" d="M276.5,405.2l12.1-1.9c2.8-0.4,3.7-1.8,3.7-3.5c0-3-2.6-5.6-7.6-5.6c-5.5,0-8.5,3.7-8.8,7.6l-13.7-2.8
		c0.6-7.4,7.5-17.1,22.6-17.1c16.7,0,22.8,9.3,22.8,19.9V427c0,4,0.5,7.5,0.6,8h-14.2c-0.1-0.4-0.5-2.3-0.5-5.8
		c-2.7,4.4-7.7,7.3-14.5,7.3c-11.3,0-17.9-7.5-17.9-15.7C261.2,411.6,268,406.4,276.5,405.2z M292.4,414.7v-2.3l-9.8,1.6
		c-3.3,0.5-5.8,2.1-5.8,5.7c0,2.7,1.8,5.3,6.1,5.3C287.6,425,292.4,422.7,292.4,414.7z"/>
	<path class="st1" d="M321,454.7v-71.3h15.3v5.3c2.2-3.3,7.8-6.5,15.2-6.5c15,0,24,11.4,24,26.9c0,15.8-10.2,27.1-24.6,27.1
		c-6.6,0-11.6-2.3-14-5.2v23.8H321z M348.2,396.4c-6.1,0-11.6,4.2-11.6,12.8c0,8.5,5.5,12.9,11.6,12.9c6.2,0,11.7-4.3,11.7-12.9
		C360,400.5,354.5,396.4,348.2,396.4z"/>
	<path class="st1" d="M385.6,454.7v-71.3h15.3v5.3c2.2-3.3,7.8-6.5,15.2-6.5c15,0,24,11.4,24,26.9c0,15.8-10.2,27.1-24.6,27.1
		c-6.6,0-11.6-2.3-14-5.2v23.8H385.6z M412.8,396.4c-6.1,0-11.6,4.2-11.6,12.8c0,8.5,5.5,12.9,11.6,12.9c6.2,0,11.7-4.3,11.7-12.9
		C424.6,400.5,419.1,396.4,412.8,396.4z"/>
</g>
</svg>
