<svg xmlns="http://www.w3.org/2000/svg" viewBox="0 0 737 823" width="737" height="823">
	<style>
		tspan { white-space:pre }
		.shp0 { fill: #ffffff } 
	</style>
	<path id="XMLID_470_" class="shp0" d="M374.9,338.3c20.6,-15.4 39.4,-29.4 58.3,-43.5c16.9,-12.6 33.8,-25.1 50.7,-37.6c7.9,-5.9 13.4,-3.5 15.5,6.2c7,31.9 12.7,64.1 14.2,96.8c1.5,32.3 -5.2,63.3 -19.5,92.5c-15.1,30.7 -37,55.7 -64.7,75.7c-16.9,12.2 -33.6,24.6 -50.2,37.3c-2.2,1.7 -4,5.3 -4.1,8.1c-0.4,15.2 -0.2,30.4 -0.3,45.6c0,6.1 -3.3,10.4 -7.9,9.8c-5.4,-0.7 -7.6,-4.2 -7.5,-9.7c0.2,-14.6 -0.1,-29.2 0.2,-43.8c0.1,-5.1 -1.5,-8.3 -5.7,-11.4c-21.6,-15.9 -43.8,-31.2 -64.3,-48.5c-36.8,-31.2 -58.8,-71.1 -66.6,-118.9c-4.2,-25.5 -1.7,-50.7 1.8,-75.8c6.1,-44.2 16,-87.5 30.8,-129.6c22.6,-64.3 55.4,-122.3 102.3,-172.1c7.6,-8.1 10.6,-8.3 18.3,-0.4c28.9,30.1 52.4,64.1 71.9,100.9c3,5.6 2,9.6 -3.1,13.4c-21.4,15.6 -42.5,31.5 -63.9,47.1c-4.3,3.1 -6.2,6.3 -6.2,11.8c0.2,45 0.1,90 0.1,135.1c-0.1,3 -0.1,6.1 -0.1,11zM297.6,133.9c-1.9,3.6 -3.3,5.9 -4.3,8.4c-8.7,21.3 -17.9,42.5 -25.7,64.2c-10.9,30.3 -17.7,61.8 -23.2,93.5c-2.3,13.5 -3.9,27.2 -6,40.7c-0.5,3.6 0.1,6.1 3.3,8.5c22.3,16.8 44.5,33.8 66.8,50.6c2,1.5 4.7,2 7.1,3c12.8,13.1 27.9,23.4 43.2,35.2c0.2,-2.5 0.4,-3.5 0.4,-4.5c0,-82.7 0,-165.4 -0.2,-248.1c0,-2.7 -2.1,-6.3 -4.3,-8c-14.4,-11 -29,-21.8 -43.7,-32.4c-2.1,-1.5 -5.1,-1.7 -6.3,-2.1c-2.6,-3.2 -4.5,-5.7 -7.1,-9zM293.3,492.8c-0.8,6.1 4.7,11.3 11.3,11.2c0.6,4.4 43,38 54,42.6c0.2,-1.7 0.6,-3.3 0.6,-4.8c0,-28.6 -0.1,-57.1 0.1,-85.7c0,-5.2 -1.7,-8.5 -5.8,-11.4c-9,-6.4 -17.6,-13.3 -26.4,-20c-8.6,-6.6 -17.7,-12.6 -25.8,-19.8c-7.9,-7 -18.2,-10.5 -25.2,-18.8c-2.5,-2.9 -6.2,-4.6 -9.3,-7c-9.5,-7.3 -18.9,-14.6 -29,-22.4c-0.4,2.1 -0.6,2.9 -0.6,3.6c-0.7,22.3 2.3,43.7 9.8,65c6.3,17.7 14.9,33.8 25.5,48.9c2.2,3.1 5.5,5.6 9.1,9.2c-0.3,4.3 4.9,9.6 11.7,9.4zM383.4,539.4c3.3,-1.2 6.1,-1.8 8.3,-3.2c6.5,-4.5 12.7,-9.5 19.2,-14c25.5,-17.9 48,-38.6 63.1,-66.4c1.3,-2.4 1.6,-5.4 2.5,-8.8c11.1,-3.9 27.3,-74.6 19.3,-89.1c-1.9,1.3 -3.7,2.6 -5.5,4c-29.8,22.7 -59.7,45.4 -89.5,68.2c-2.3,1.8 -3.6,4.7 -5,6.6c-2.5,0.8 -4.9,1.2 -6.9,2.4c-2.8,1.7 -5.1,4.3 -8,6c-4,2.4 -5.4,5.5 -5.3,10.2c0.2,28.8 0.1,57.5 0.1,86.3c0,1.8 0.3,3.5 0.5,7.2c3.1,-4.5 8.8,-4.5 7.2,-9.4zM485.6,275.9c-2.7,1.9 -4.4,3 -6.1,4.2c-13.5,10.1 -26.9,20.4 -40.6,30.2c-13.6,9.7 -26,20.9 -40,29.9c-6.5,4.2 -12.3,9.3 -18.6,13.7c-3.4,2.4 -4.7,5.2 -4.7,9.4c0.2,22.7 0.1,45.4 0.1,68.1c0,1.8 0.2,3.5 0.5,6.4c3.4,-2.5 6,-4.5 8.6,-6.5c14.4,-11 28.7,-22.2 43.3,-32.8c14.5,-10.5 27.7,-22.7 42.6,-32.6c7.8,-5.2 15.1,-11.1 22.3,-17.1c1.6,-1.3 3.1,-4.2 2.9,-6.1c-1.3,-12.2 -3,-24.4 -4.8,-36.5c-0.3,-2 -2.3,-3.7 -3.5,-5.5c4.5,-7.9 -1.3,-15.6 -2,-24.8zM358.6,42.5c-5.2,6.2 -9.9,10.9 -13.4,16.3c-14.2,21.4 -28.2,43 -42,64.7c-0.7,1.2 0,4.4 1.2,5.4c4.7,4.1 9.7,7.8 14.9,11.3c2.1,1.4 4.7,1.9 7.3,2.9c0.8,1.3 1.6,3.5 3.1,4.8c5.3,4.3 10.9,8.3 16.4,12.4c3.9,2.9 7.9,5.6 12.5,8.8c0,-42.5 0,-83.7 0,-126.6zM376.1,163.6c1.3,-0.6 2.1,-0.7 2.7,-1.2c16.4,-12.1 32.8,-24.3 49.3,-36.4c3.2,-2.3 2.7,-4.6 1,-7.4c-5.4,-8.9 -10.6,-17.9 -16.2,-26.7c-1.5,-2.4 -4.1,-4.1 -6.2,-6.1c-7.3,-15.8 -18.5,-28.8 -30.6,-43.3c0,41.6 0,81.1 0,121.1z" />
	<g id="Layer">
		<path id="Layer" class="shp0" d="M108.2,767.9v-121.9h-16.9v93.6l-60.9,-93.6h-22.5v121.9h16.9v-99.4l65.9,99.4z" />
		<path id="Layer" class="shp0" d="M156.5,720.6l22.4,-3.3c5,-0.7 6.4,-3.3 6.4,-6.2c0,-8.1 -5.3,-14.8 -17.9,-14.8c-11.4,0 -17.7,7.1 -18.7,16.7l-15.5,-3.6c1.7,-15.8 16,-26.8 33.9,-26.8c24.8,0 34.4,14.1 34.4,30.3v41.5c0,7.2 0.7,11.5 1,13.6h-15.8c-0.3,-2.1 -0.9,-5.2 -0.9,-11.2c-3.6,5.8 -11.9,13.8 -26.7,13.8c-16.9,0 -27.7,-11.7 -27.7,-24.8c0,-14.8 10.9,-23.1 25.1,-25.2zM185.3,732.5v-3.8l-25.3,3.8c-6.9,1 -12,5 -12,12.4c0,6.2 5.2,12 13.4,12c13.2,0 23.9,-6.3 23.9,-24.4z" />
		<path id="Layer" class="shp0" d="M248.3,685.2v-26.1h-14.8v13.4c0,7.2 -3.8,12.7 -12.7,12.7h-4.5v14.6h15.8v45.4c0,15 8.9,23.6 23,23.6c5.5,0 9.6,-1 11,-1.5v-13.8c-1.4,0.4 -4.3,0.7 -6.4,0.7c-8.4,0 -11.5,-3.8 -11.5,-11.4v-43h17.9v-14.6h-17.9z" />
		<path id="Layer" class="shp0" d="M342.1,757.8c0,3.5 0.4,8.1 0.7,10h15.5c-0.4,-2.9 -0.9,-8.8 -0.9,-15.3v-67.4h-16.2v49.9c0,12.6 -6.5,21.2 -19.6,21.2c-13.5,0 -18.7,-9.9 -18.7,-21.3v-49.7h-16.2v52.1c0,18.8 11.7,33.2 31,33.2c9.6,0 20,-3.9 24.4,-12.7z" />
		<path id="Layer" class="shp0" d="M430.9,701.6v-17.1c-0.8,-0.2 -3.1,-0.5 -5.3,-0.5c-8.5,0 -18.8,3.1 -24.8,15.8v-14.4h-15.8v82.7h16.1v-41.5c0,-18.3 9.1,-25.5 22.7,-25.5c2.3,0 4.7,0.2 7.1,0.5z" />
		<path id="Layer" class="shp0" d="M466,718.6l20.1,-3.1c4.6,-0.7 6.2,-2.9 6.2,-5.8c0,-5 -4.3,-9.3 -12.6,-9.3c-9.1,0 -14.1,6.2 -14.6,12.6l-22.7,-4.6c1,-12.2 12.4,-28.4 37.5,-28.4c27.7,0 37.8,15.5 37.8,33v41.8c0,6.7 0.9,12.4 1,13.2h-23.6c-0.2,-0.7 -0.9,-3.8 -0.9,-9.6c-4.5,7.2 -12.7,12 -24.1,12c-18.7,0 -29.6,-12.4 -29.6,-26c0.2,-15.2 11.4,-23.8 25.5,-25.8zM492.3,734.4v-3.8l-16.2,2.6c-5.5,0.9 -9.6,3.4 -9.6,9.5c0,4.5 2.9,8.8 10.1,8.8c7.8,-0.1 15.7,-3.8 15.7,-17.1z" />
		<path id="Layer" class="shp0" d="M539.8,682.5h25.2v8.8c3.6,-5.5 12.9,-10.8 25.1,-10.8c24.8,0 39.7,18.9 39.7,44.5c0,26.1 -16.9,44.9 -40.8,44.9c-11,0 -19.3,-3.8 -23.2,-8.6v39.4h-26zM584.8,704c-10.1,0 -19.3,6.9 -19.3,21.2c0,14.1 9.1,21.3 19.3,21.3c10.3,0 19.4,-7.1 19.4,-21.3c0,-14.4 -9.1,-21.2 -19.4,-21.2z" />
		<path id="Layer" class="shp0" d="M646.7,682.5h25.3v8.8c3.6,-5.5 12.9,-10.8 25.1,-10.8c24.8,0 39.7,18.9 39.7,44.5c0,26.1 -16.9,44.9 -40.8,44.9c-11,0 -19.3,-3.8 -23.2,-8.6v39.4h-26.1zM691.8,704c-10.1,0 -19.3,6.9 -19.3,21.2c0,14.1 9.1,21.3 19.3,21.3c10.3,0 19.4,-7.1 19.4,-21.3c0,-14.4 -9.1,-21.2 -19.4,-21.2z" />
	</g>
	<g id="Layer">
	</g>
</svg>