<?xml version="1.0" encoding="utf-8"?>
<!-- Generator: Adobe Illustrator 19.0.0, SVG Export Plug-In . SVG Version: 6.00 Build 0)  -->
<svg version="1.1" id="Capa_1" xmlns="http://www.w3.org/2000/svg" xmlns:xlink="http://www.w3.org/1999/xlink" x="0px" y="0px"
	 viewBox="-97 -0.3 400.7 842.2" style="enable-background:new -97 -0.3 400.7 842.2;" xml:space="preserve">
<style type="text/css">
	.st0{fill:#00C98D;}
</style>
<path id="XMLID_470_" class="st0" d="M113.7,444.2c28.1-21,53.9-40.3,79.7-59.5c23.1-17.2,46.2-34.4,69.3-51.5
	c10.9-8,18.3-4.8,21.3,8.4c9.6,43.7,17.4,87.7,19.5,132.4c2.1,44.2-7,86.5-26.7,126.4c-20.7,42-50.6,76.1-88.5,103.5
	c-23.1,16.7-46,33.7-68.6,51c-3,2.3-5.5,7.3-5.6,11c-0.6,20.8-0.3,41.6-0.4,62.4c0,8.4-4.5,14.2-10.8,13.4
	c-7.4-1-10.3-5.8-10.3-13.2c0.2-19.9-0.2-39.9,0.2-59.8c0.2-7-2-11.4-7.8-15.6c-29.6-21.8-59.9-42.7-88-66.3
	c-50.4-42.5-80.5-97-91.1-162.4c-5.7-34.9-2.3-69.3,2.4-103.7c8.4-60.4,21.8-119.6,42.1-177.2C-18.6,155.7,26.4,76.3,90.4,8.2
	c10.4-11.1,14.5-11.4,25-0.5c39.5,41.2,71.7,87.6,98.3,138c4.1,7.7,2.7,13.2-4.3,18.3c-29.2,21.4-58.1,43.1-87.4,64.4
	c-5.8,4.2-8.5,8.6-8.5,16.1c0.3,61.6,0.2,123.1,0.2,184.7C113.7,433.4,113.7,437.5,113.7,444.2z M8,164.8c-2.6,5-4.5,8.1-5.9,11.5
	c-11.9,29.2-24.5,58.1-35.2,87.7c-14.9,41.4-24.2,84.4-31.7,127.8c-3.2,18.5-5.4,37.1-8.2,55.7c-0.7,4.9,0.1,8.4,4.5,11.7
	c30.5,22.9,60.8,46.2,91.2,69.1c2.7,2.1,6.4,2.8,9.7,4.2c17.5,17.9,38.2,31.9,59.1,48.1c0.3-3.4,0.5-4.7,0.5-6.1
	c0-113.1,0.1-226.2-0.2-339.3c0-3.7-2.9-8.6-5.9-11c-19.6-15.1-39.6-29.8-59.7-44.3c-2.9-2.1-7-2.4-8.6-2.9
	C14.2,172.8,11.5,169.3,8,164.8z M2,655.5c-1.1,8.3,6.5,15.5,15.5,15.3c0.9,6,58.8,51.9,73.8,58.3c0.3-2.3,0.8-4.5,0.8-6.6
	c0-39.1-0.1-78.1,0.2-117.2c0.1-7.1-2.3-11.6-8-15.6C72,581,60.2,571.6,48.1,562.5c-11.8-9-24.2-17.2-35.3-27
	c-10.8-9.6-24.9-14.4-34.5-25.7c-3.4-4-8.5-6.3-12.8-9.6c-13-10-25.9-20-39.7-30.7c-0.5,2.9-0.8,3.9-0.8,5
	c-0.6,30.4,3.5,59.7,13.8,88.7c8.6,24.2,20.3,46.2,34.9,66.9c3,4.3,7.5,7.6,12.4,12.5C-14.3,648.6-7.2,655.8,2,655.5z M125.3,719.2
	c4.5-1.7,8.4-2.4,11.4-4.4c8.9-6.1,17.3-13,26.2-19.2c34.9-24.4,65.7-52.8,86.3-90.8c1.8-3.3,2.1-7.4,3.4-12
	c15.1-5.4,37.4-102,26.4-121.8c-2.6,1.8-5.1,3.6-7.6,5.4c-40.8,31-81.7,62-122.3,93.2c-3.1,2.4-5,6.4-6.9,9
	c-3.4,1.1-6.8,1.6-9.5,3.2c-3.9,2.3-7,5.9-10.9,8.2c-5.5,3.3-7.3,7.5-7.3,14c0.3,39.3,0.1,78.6,0.2,118c0,2.4,0.4,4.8,0.7,9.9
	C119.7,726,127.6,726,125.3,719.2z M265,358.9c-3.7,2.6-6.1,4.1-8.3,5.8c-18.5,13.8-36.8,27.9-55.5,41.3
	c-18.6,13.2-35.5,28.6-54.8,40.9c-8.8,5.7-16.8,12.7-25.5,18.7c-4.7,3.3-6.5,7.1-6.4,12.8c0.3,31,0.1,62.1,0.1,93.1
	c0,2.4,0.3,4.8,0.6,8.7c4.6-3.5,8.2-6.1,11.8-8.8c19.7-15,39.2-30.3,59.3-44.9c19.8-14.4,37.9-31,58.3-44.6
	c10.7-7.1,20.6-15.2,30.5-23.3c2.2-1.8,4.2-5.7,4-8.3c-1.8-16.7-4-33.3-6.6-49.9c-0.4-2.7-3.1-5-4.7-7.5
	C273.9,382.1,266,371.6,265,358.9z M91.5,39.7C84.4,48.3,78,54.7,73.1,62c-19.5,29.3-38.5,58.9-57.4,88.5c-1,1.6,0.1,6,1.6,7.4
	c6.4,5.6,13.3,10.7,20.4,15.5c2.8,1.9,6.5,2.6,10,3.9c1.1,1.7,2.1,4.8,4.3,6.5c7.3,5.9,14.8,11.4,22.4,16.9
	c5.3,3.9,10.8,7.6,17.1,12.1C91.5,154.8,91.5,98.5,91.5,39.7z M115.3,205.3c1.8-0.8,2.9-1,3.7-1.6c22.5-16.6,44.9-33.3,67.4-49.8
	c4.4-3.2,3.7-6.3,1.4-10.2c-7.4-12.2-14.5-24.5-22.1-36.5c-2.1-3.2-5.6-5.6-8.5-8.3c-10-21.5-25.3-39.3-41.9-59.2
	C115.3,96.7,115.3,150.6,115.3,205.3z"/>
</svg>
