<?xml version="1.0" encoding="utf-8"?>
<!-- Generator: Adobe Illustrator 19.0.0, SVG Export Plug-In . SVG Version: 6.00 Build 0)  -->
<svg version="1.1" baseProfile="basic" id="Capa_1" xmlns="http://www.w3.org/2000/svg" xmlns:xlink="http://www.w3.org/1999/xlink"
	 x="0px" y="0px" viewBox="0 0 400.668 842.224" xml:space="preserve">
<style type="text/css">
	.st0{fill:#FFFFFF;}
</style>
<path id="XMLID_470_" class="st0" d="M210.695,444.549c28.141-21.014,53.88-40.27,79.659-59.474
	c23.071-17.187,46.154-34.359,69.294-51.453c10.856-8.02,18.342-4.84,21.25,8.435c9.566,43.68,17.358,87.703,19.477,132.372
	c2.096,44.202-7.044,86.542-26.655,126.426c-20.669,42.034-50.559,76.121-88.455,103.482
	c-23.097,16.677-45.972,33.671-68.598,50.979c-3.005,2.299-5.484,7.252-5.589,11.049c-0.576,20.79-0.313,41.602-0.384,62.407
	c-0.029,8.373-4.456,14.21-10.799,13.371c-7.352-0.972-10.34-5.768-10.252-13.242c0.234-19.947-0.205-39.905,0.231-59.846
	c0.153-7.006-2.04-11.388-7.754-15.59c-29.599-21.762-59.946-42.696-87.992-66.339c-50.385-42.476-80.493-97.025-91.141-162.406
	c-5.677-34.858-2.348-69.289,2.438-103.704c8.395-60.376,21.839-119.588,42.106-177.191
	c30.898-87.816,75.825-167.225,139.858-235.33c10.41-11.072,14.514-11.413,24.985-0.496c39.509,41.19,71.655,87.63,98.311,137.999
	c4.063,7.677,2.735,13.177-4.272,18.304c-29.199,21.363-58.119,43.109-87.388,64.375c-5.838,4.242-8.527,8.622-8.49,16.133
	c0.308,61.558,0.166,123.119,0.161,184.679C210.694,433.684,210.695,437.877,210.695,444.549z M105.04,165.133
	c-2.566,4.973-4.514,8.128-5.89,11.514c-11.868,29.193-24.533,58.104-35.212,87.729c-14.937,41.436-24.243,84.444-31.66,127.813
	c-3.162,18.492-5.393,37.143-8.187,55.701c-0.736,4.892,0.147,8.397,4.511,11.674c30.511,22.912,60.758,46.175,91.228,69.143
	c2.721,2.051,6.423,2.803,9.669,4.158c17.471,17.884,38.215,31.946,59.066,48.092c0.299-3.351,0.529-4.724,0.529-6.096
	c0.013-113.094,0.066-226.187-0.249-339.28c-0.01-3.733-2.865-8.633-5.931-10.991c-19.63-15.105-39.607-29.767-59.703-44.251
	c-2.868-2.067-6.997-2.387-8.639-2.91C111.204,173.084,108.529,169.633,105.04,165.133z M99.047,655.849
	c-1.135,8.31,6.455,15.47,15.461,15.349c0.875,6.025,58.778,51.948,73.8,58.298c0.278-2.33,0.756-4.478,0.759-6.627
	c0.049-39.052-0.121-78.106,0.193-117.156c0.057-7.082-2.333-11.558-7.986-15.598c-12.284-8.78-24.12-18.187-36.151-27.321
	c-11.804-8.962-24.211-17.239-35.267-27.043c-10.804-9.581-24.928-14.409-34.492-25.677c-3.354-3.952-8.527-6.33-12.753-9.578
	c-12.958-9.959-25.86-19.992-39.687-30.696c-0.485,2.872-0.802,3.928-0.823,4.99c-0.6,30.377,3.504,59.703,13.75,88.732
	c8.551,24.227,20.339,46.162,34.876,66.915c3.016,4.306,7.471,7.606,12.45,12.548C82.724,648.911,89.792,656.104,99.047,655.849z
	 M222.304,719.563c4.512-1.702,8.408-2.399,11.383-4.44c8.917-6.118,17.335-12.958,26.195-19.164
	c34.902-24.449,65.655-52.835,86.331-90.756c1.792-3.287,2.121-7.372,3.369-11.969c15.113-5.355,37.385-101.99,26.428-121.808
	c-2.557,1.828-5.11,3.557-7.561,5.421c-40.815,31.029-81.662,62.016-122.332,93.233c-3.119,2.394-4.967,6.443-6.901,9.042
	c-3.386,1.104-6.756,1.607-9.456,3.225c-3.88,2.326-7.039,5.861-10.931,8.161c-5.53,3.269-7.328,7.526-7.279,13.988
	c0.297,39.315,0.127,78.633,0.153,117.95c0.002,2.419,0.355,4.839,0.747,9.856C216.674,726.368,224.572,726.322,222.304,719.563z
	 M362.05,359.268c-3.725,2.578-6.077,4.103-8.32,5.775c-18.497,13.778-36.751,27.896-55.52,41.292
	c-18.557,13.244-35.529,28.566-54.765,40.925c-8.843,5.681-16.811,12.706-25.465,18.705c-4.705,3.262-6.456,7.065-6.409,12.808
	c0.251,31.047,0.107,62.098,0.141,93.147c0.003,2.417,0.335,4.834,0.621,8.709c4.641-3.477,8.226-6.133,11.779-8.831
	c19.735-14.98,39.208-30.321,59.264-44.857c19.821-14.365,37.855-31.012,58.311-44.573c10.654-7.063,20.621-15.21,30.525-23.323
	c2.201-1.804,4.232-5.678,3.95-8.346c-1.765-16.679-4.038-33.313-6.599-49.891c-0.415-2.687-3.107-5.022-4.741-7.51
	C370.911,382.395,362.997,371.902,362.05,359.268z M188.467,40.061C181.36,48.605,174.992,55,170.095,62.372
	c-19.466,29.304-38.544,58.867-57.446,88.538c-1.002,1.573,0.053,6.03,1.649,7.406c6.447,5.56,13.33,10.662,20.376,15.458
	c2.814,1.916,6.467,2.601,9.997,3.945c1.084,1.714,2.142,4.772,4.276,6.508c7.255,5.902,14.846,11.396,22.395,16.929
	c5.326,3.904,10.791,7.619,17.126,12.073C188.467,155.176,188.467,98.797,188.467,40.061z M212.278,205.665
	c1.772-0.756,2.88-1.002,3.716-1.619c22.467-16.581,44.856-33.268,67.394-49.752c4.367-3.194,3.734-6.298,1.384-10.165
	c-7.395-12.17-14.502-24.52-22.14-36.534c-2.065-3.248-5.616-5.552-8.486-8.289c-10.016-21.545-25.319-39.342-41.869-59.179
	C212.278,97.001,212.278,150.97,212.278,205.665z"/>
</svg>
